<svg xmlns="http://www.w3.org/2000/svg" viewBox="0 0 80 80">
    <path style="line-height:normal;text-indent:0;text-align:start;text-decoration-line:none;text-decoration-style:solid;text-decoration-color:#000;text-transform:none;block-progression:tb;isolation:auto;mix-blend-mode:normal" d="M 28.894531 15 C 26.005085 15 23.392687 16.55897 21.908203 19 L 14 19 L 14 21 L 20.802734 21 L 22.421875 21 L 23.039062 21 L 23.316406 20.447266 C 24.37401 18.332922 26.530279 17 28.894531 17 L 56.300781 17 C 58.151776 17 59.788125 18.337299 59.978516 20.119141 C 60.116096 21.406104 59.563668 22.52032 58.646484 23.240234 L 56.550781 24.884766 L 59.210938 25.025391 C 61.331727 25.137985 63 26.853148 63 29 C 63 30.359864 62.325714 31.544122 61.292969 32.269531 L 59.318359 33.654297 L 61.693359 34.072266 C 63.571765 34.402148 65 36.0183 65 38 C 65 39.359864 64.325714 40.544122 63.292969 41.269531 L 61.318359 42.654297 L 63.693359 43.072266 C 65.63531 43.413408 67.0969 45.122612 66.996094 47.199219 C 66.892298 49.339315 64.977626 51 62.779297 51 L 37.457031 51 L 37.697266 52.197266 C 38.122102 54.317457 38.580027 56.697945 38.929688 58.763672 C 39.279348 60.829399 39.513672 62.638442 39.513672 63.357422 C 39.513207 65.9271 38.746979 68.694371 37.515625 70.734375 C 36.284271 72.774379 34.680085 74 33 74 L 31 74 L 31 63.779297 L 23.201172 47 L 14 47 L 14 49 L 21.925781 49 L 29 64.220703 L 29 76 L 33 76 C 35.626915 76 37.779869 74.167574 39.228516 71.767578 C 40.677162 69.367582 41.513137 66.313744 41.513672 63.357422 C 41.513672 62.274402 41.257683 60.52896 40.902344 58.429688 C 40.611201 56.709673 40.23896 54.809824 39.882812 53 L 62.779297 53 C 65.988967 53 68.833983 50.558779 68.992188 47.296875 C 69.11366 44.794515 67.648862 42.665265 65.542969 41.660156 C 66.377729 40.630755 67 39.425083 67 38 C 67 35.619206 65.571141 33.617149 63.550781 32.652344 C 64.381356 31.624249 65 30.421097 65 29 C 65 26.394137 63.284595 24.257079 60.953125 23.4375 C 61.637372 22.417203 62.110427 21.249805 61.966797 19.90625 C 61.661188 17.046092 59.117786 15 56.300781 15 L 28.894531 15 z M 15 23 A 1 1 0 0 0 14 24 A 1 1 0 0 0 15 25 A 1 1 0 0 0 16 24 A 1 1 0 0 0 15 23 z M 22 23 A 1 1 0 0 0 21 24 A 1 1 0 0 0 22 25 A 1 1 0 0 0 23 24 A 1 1 0 0 0 22 23 z M 15 27 A 1 1 0 0 0 14 28 A 1 1 0 0 0 15 29 A 1 1 0 0 0 16 28 A 1 1 0 0 0 15 27 z M 22 27 A 1 1 0 0 0 21 28 A 1 1 0 0 0 22 29 A 1 1 0 0 0 23 28 A 1 1 0 0 0 22 27 z M 15 31 A 1 1 0 0 0 14 32 A 1 1 0 0 0 15 33 A 1 1 0 0 0 16 32 A 1 1 0 0 0 15 31 z M 15 35 A 1 1 0 0 0 14 36 A 1 1 0 0 0 15 37 A 1 1 0 0 0 16 36 A 1 1 0 0 0 15 35 z" font-weight="400" font-family="sans-serif" white-space="normal" overflow="visible"/>
</svg>