<svg xmlns="http://www.w3.org/2000/svg" viewBox="0 0 80 80">
    <path style="line-height:normal;text-indent:0;text-align:start;text-decoration-line:none;text-decoration-style:solid;text-decoration-color:#000;text-transform:none;block-progression:tb;isolation:auto;mix-blend-mode:normal" d="M 29 8 L 29 19.779297 L 21.925781 35 L 14 35 L 14 37 L 23.201172 37 L 31 20.220703 L 31 10 L 33 10 C 34.680085 10 36.284271 11.225621 37.515625 13.265625 C 38.746979 15.305629 39.513207 18.0729 39.513672 20.642578 C 39.513672 21.361558 39.279348 23.170601 38.929688 25.236328 C 38.580027 27.302055 38.122102 29.682543 37.697266 31.802734 L 37.457031 33 L 62.779297 33 C 64.977626 33 66.892298 34.660685 66.996094 36.800781 C 67.0969 38.877388 65.63531 40.586592 63.693359 40.927734 L 61.318359 41.345703 L 63.292969 42.730469 C 64.325714 43.455878 65 44.640136 65 46 C 65 47.9817 63.571765 49.597852 61.693359 49.927734 L 59.318359 50.345703 L 61.292969 51.730469 C 62.325714 52.455878 63 53.640136 63 55 C 63 57.146852 61.331727 58.862015 59.210938 58.974609 L 56.550781 59.115234 L 58.646484 60.759766 C 59.563668 61.47968 60.116096 62.593896 59.978516 63.880859 C 59.788125 65.662701 58.151776 67 56.300781 67 L 28.894531 67 C 26.530279 67 24.37401 65.667078 23.316406 63.552734 L 22.421875 65 L 22.421875 63 L 14 63 L 14 65 L 21.908203 65 C 23.392687 67.44103 26.005085 69 28.894531 69 L 56.300781 69 C 59.117786 69 61.661188 66.953908 61.966797 64.09375 C 62.110427 62.750195 61.637372 61.582797 60.953125 60.5625 C 63.284595 59.742921 65 57.605863 65 55 C 65 53.578903 64.381356 52.375751 63.550781 51.347656 C 65.571141 50.382851 67 48.380794 67 46 C 67 44.574917 66.377729 43.369245 65.542969 42.339844 C 67.648862 41.334735 69.11366 39.205485 68.992188 36.703125 C 68.833983 33.441221 65.988967 31 62.779297 31 L 39.882812 31 C 40.23896 29.190176 40.611201 27.290328 40.902344 25.570312 C 41.257683 23.471041 41.513672 21.725598 41.513672 20.642578 C 41.513137 17.686256 40.677162 14.632418 39.228516 12.232422 C 37.779869 9.8324259 35.626915 8 33 8 L 29 8 z M 15 47 A 1 1 0 0 0 14 48 A 1 1 0 0 0 15 49 A 1 1 0 0 0 16 48 A 1 1 0 0 0 15 47 z M 15 51 A 1 1 0 0 0 14 52 A 1 1 0 0 0 15 53 A 1 1 0 0 0 16 52 A 1 1 0 0 0 15 51 z M 15 55 A 1 1 0 0 0 14 56 A 1 1 0 0 0 15 57 A 1 1 0 0 0 16 56 A 1 1 0 0 0 15 55 z M 22 55 A 1 1 0 0 0 21 56 A 1 1 0 0 0 22 57 A 1 1 0 0 0 23 56 A 1 1 0 0 0 22 55 z M 15 59 A 1 1 0 0 0 14 60 A 1 1 0 0 0 15 61 A 1 1 0 0 0 16 60 A 1 1 0 0 0 15 59 z M 22 59 A 1 1 0 0 0 21 60 A 1 1 0 0 0 22 61 A 1 1 0 0 0 23 60 A 1 1 0 0 0 22 59 z" font-weight="400" font-family="sans-serif" white-space="normal" overflow="visible"/>
</svg>